<svg xmlns="http://www.w3.org/2000/svg" width="32" height="32" viewBox="0 0 32 32">
    <g fill="none" fill-rule="evenodd">
        <path fill="#FFF" d="M-260-830h360v960h-360z"/>
        <g>
            <circle cx="16" cy="16" r="15.5" stroke="#777"/>
            <path fill="#777" d="M9.74 10.667c-.594 0-1.073.495-1.073 1.11v7.779c0 .615.479 1.11 1.073 1.11h12.52c.594 0 1.073-.495 1.073-1.11v-7.778c0-.616-.479-1.111-1.073-1.111H9.74zm.597 2.002a.369.369 0 0 1 .3.11l4.846 4.757c.301.297.72.297 1.023 0l4.858-4.758a.366.366 0 0 1 .52.022.425.425 0 0 1-.02.553l-2.748 2.693 2.742 2.59c.164.13.19.413.055.574a.368.368 0 0 1-.543.006l-2.794-2.638-1.57 1.532a1.428 1.428 0 0 1-2.023 0l-1.559-1.532-2.794 2.638a.367.367 0 0 1-.543-.006c-.136-.162-.11-.446.055-.574l2.742-2.59-2.748-2.693a.418.418 0 0 1-.11-.413.38.38 0 0 1 .311-.271z"/>
        </g>
    </g>
</svg>
