<svg xmlns="http://www.w3.org/2000/svg" width="32" height="32" viewBox="0 0 32 32">
    <g fill="none" fill-rule="evenodd">
        <path fill="#FFF" d="M-68-830h360v960H-68z"/>
        <g>
            <circle cx="16" cy="16" r="15.5" stroke="#777" style="mix-blend-mode:multiply"/>
            <path fill="#777" d="M22.667 21.93c0 .407-.33.737-.736.737h-3.398v-5.164h1.733l.26-2.012h-1.993v-1.285c0-.582.162-.98.997-.98h1.066v-1.8a14.18 14.18 0 0 0-1.553-.08c-1.536 0-2.588.939-2.588 2.661v1.484h-1.737v2.012h1.737v5.164H10.07a.736.736 0 0 1-.736-.736V10.069c0-.406.33-.736.736-.736h11.862c.406 0 .736.33.736.736v11.862"/>
        </g>
    </g>
</svg>
