<svg xmlns="http://www.w3.org/2000/svg" width="32" height="32" viewBox="0 0 32 32">
    <g fill="none" fill-rule="evenodd">
        <path fill="#FFF" d="M-196-830h360v960h-360z"/>
        <g>
            <circle cx="16" cy="16" r="15.5" stroke="#777" style="mix-blend-mode:multiply"/>
            <path fill="#777" d="M22.966 10.877a5.332 5.332 0 0 1-1.739.693 2.674 2.674 0 0 0-1.996-.903c-1.51 0-2.735 1.28-2.735 2.86 0 .225.024.443.07.652-2.273-.12-4.288-1.257-5.638-2.99-.236.424-.37.916-.37 1.44 0 .992.483 1.868 1.217 2.381a2.646 2.646 0 0 1-1.24-.357v.035c0 1.387.943 2.544 2.196 2.806-.23.067-.472.1-.721.1-.177 0-.349-.017-.515-.05.348 1.136 1.358 1.963 2.555 1.985A5.335 5.335 0 0 1 10 20.716 7.509 7.509 0 0 0 14.193 22c5.032 0 7.783-4.36 7.783-8.14 0-.124-.002-.249-.007-.37a5.68 5.68 0 0 0 1.364-1.482 5.256 5.256 0 0 1-1.57.45 2.848 2.848 0 0 0 1.203-1.581"/>
        </g>
    </g>
</svg>
