<svg xmlns="http://www.w3.org/2000/svg" width="32" height="32" viewBox="0 0 32 32">
    <g fill="none" fill-rule="evenodd">
        <path fill="#FFF" d="M-132-830h360v960h-360z"/>
        <g>
            <circle cx="16" cy="16" r="15.5" stroke="#777" style="mix-blend-mode:multiply"/>
            <path fill="#777" d="M10.336 13.182h2.599v8.151h-2.599v-8.151zm9.7-.079c1.846 0 3.297 1.173 3.297 3.698v4.532h-2.946v-4.218c0-1.104-.461-1.858-1.475-1.858-.775 0-1.207.509-1.407.999-.075.176-.064.42-.064.666v4.411h-2.92s.039-7.472 0-8.151h2.92v1.279c.173-.56 1.105-1.358 2.594-1.358zm-8.449-3.77c.96 0 1.549.609 1.568 1.414 0 .79-.609 1.415-1.586 1.415h-.018c-.94 0-1.551-.623-1.551-1.413 0-.806.628-1.416 1.587-1.416z"/>
        </g>
    </g>
</svg>
