<?xml version="1.0" encoding="utf-8"?>
<!-- Generator: Adobe Illustrator 22.1.0, SVG Export Plug-In . SVG Version: 6.00 Build 0)  -->
<svg version="1.1" id="Layer_1" xmlns="http://www.w3.org/2000/svg" xmlns:xlink="http://www.w3.org/1999/xlink" x="0px" y="0px"
	 viewBox="0 0 48 48" style="enable-background:new 0 0 48 48;" xml:space="preserve">
<style type="text/css">
	.st0{fill:#FFFFFF;}
</style>
<path class="st0" d="M37.8,0H9.2C7.5,0,6.1,1.4,6.1,3.2v36c0,1.7,1.4,3.2,3.2,3.2h1.5l-0.2,4.1c0,1.3,1.1,1.9,2.1,1.1l4.5-3.6
	l2.1-1.7h18.5c1.7,0,3.2-1.4,3.2-3.2v-36C41,1.4,39.6,0,37.8,0z M33.6,32.9h-19c-0.7,0-1.2-0.6-1.2-1.2s0.6-1.2,1.2-1.2h19
	c0.7,0,1.2,0.6,1.2,1.2S34.3,32.9,33.6,32.9z M33.6,26.3h-19c-0.7,0-1.2-0.6-1.2-1.2c0-0.7,0.6-1.2,1.2-1.2h19
	c0.7,0,1.2,0.6,1.2,1.2C34.9,25.8,34.3,26.3,33.6,26.3z M33.6,19.7h-19c-0.7,0-1.2-0.6-1.2-1.2c0-0.7,0.6-1.2,1.2-1.2h19
	c0.7,0,1.2,0.6,1.2,1.2C34.9,19.1,34.3,19.7,33.6,19.7z"/>
</svg>
