<svg xmlns="http://www.w3.org/2000/svg" width="121" height="24" viewBox="0 0 121 24">
    <g fill="none" fill-rule="evenodd">
        <path fill="#FFF" d="M-120-774h360v960h-360z"/>
        <path fill="#373B44" d="M3.779 7.772C4.63 6.248 6 5.374 7.786 5.25a.338.338 0 0 1 .36.338v2.857a.336.336 0 0 1-.35.336C5.305 8.688 3.78 10.109 3.78 12.25v6.037a.338.338 0 0 1-.337.338H.337A.338.338 0 0 1 0 18.287V5.722c0-.186.151-.338.337-.338h3.105c.186 0 .337.152.337.338v2.05zM58.503 11.69c0-2.165-1.35-3.667-3.288-3.667-1.962 0-3.312 1.526-3.337 3.667.025 2.166 1.35 3.667 3.337 3.667 1.939 0 3.288-1.501 3.288-3.667m3.423 6.571h-3.09a.333.333 0 0 1-.333-.333v-1.611c-.932 1.353-2.355 2.092-4.171 2.092-3.754 0-6.233-2.731-6.233-6.817 0-4.036 2.454-6.72 6.135-6.72 1.865 0 3.313.74 4.27 2.093V.333c0-.184.148-.333.332-.333h3.09c.184 0 .332.15.332.333v17.595a.333.333 0 0 1-.332.333M73.624 11.625c0-2.042-1.252-3.445-3.092-3.445s-3.092 1.427-3.116 3.445c.024 2.018 1.251 3.42 3.116 3.42 1.84 0 3.092-1.402 3.092-3.42zm3.755 5.76c0 3.764-2.822 6.152-7.043 6.152-2.103 0-3.987-.633-5.47-1.57a.354.354 0 0 1-.123-.463l1.066-2.024a.351.351 0 0 1 .502-.133 6.939 6.939 0 0 0 3.78 1.114c2.159 0 3.533-1.157 3.533-2.954v-1.501c-.883 1.23-2.233 1.92-3.975 1.92-3.41 0-5.767-2.56-5.767-6.4 0-3.74 2.307-6.275 5.669-6.275 1.791-.024 3.165.69 4.073 1.92V5.722c0-.192.156-.348.347-.348h3.068a.34.34 0 0 1 .34.34v11.67zM78.913 17.909V.402c0-.222.18-.402.4-.402h2.977c.222 0 .402.18.402.402V17.91a.352.352 0 0 1-.352.352h-3.075a.352.352 0 0 1-.352-.352M92.836 13.993v-1.065h-3.39c-.96-.064-1.7.624-1.739 1.502a1.576 1.576 0 0 0 1.572 1.673c1.594 0 3.557-.956 3.557-2.11zm.025 3.094c-.884 1.108-2.307 1.723-4.148 1.723-2.822 0-4.54-1.723-4.54-4.134 0-2.486 1.792-3.963 5.031-3.987h3.632v-.246c0-1.403-.933-2.215-2.749-2.215-1.083 0-2.333.333-3.595.98a.355.355 0 0 1-.486-.169l-.88-1.95a.356.356 0 0 1 .168-.467c1.834-.887 3.468-1.372 5.652-1.372 3.534 0 5.57 1.772 5.595 4.75l.023 8.28a.356.356 0 0 1-.355.358h-2.993a.356.356 0 0 1-.355-.357v-1.194zM45.53 7.33c-.662-.913-1.732-1.794-2.87-1.985-1.602-.269-3.046-.002-4.343 1.242L29.97 14.44c-.39.37-.934.453-1.36.298a1.29 1.29 0 0 1-.79-1.199V5.632a.326.326 0 0 0-.326-.327h-3.118a.326.326 0 0 0-.326.327v8.167c0 .983.126 1.84.728 2.671.664.912 1.733 1.793 2.872 1.984 1.602.27 3.118-.134 4.343-1.24l1.129-1.063v2.012c0 .187.15.339.338.339h3.11c.189 0 .342-.154.342-.344v-5.572L40.34 9.36c.39-.37.933-.453 1.36-.298.322.117.79.533.79 1.199v7.907c0 .18.146.326.326.326h3.118c.18 0 .326-.146.326-.327v-8.166c0-.983-.126-1.841-.73-2.672M108.451 7.044l-.963 1.914a.382.382 0 0 1-.52.167c-1.336-.697-2.665-1.094-3.682-1.094-.883 0-1.521.295-1.521.984 0 1.994 6.969.985 6.944 5.66 0 2.707-2.38 4.135-5.374 4.135-2.033 0-4.022-.58-5.5-1.677a.334.334 0 0 1-.1-.413l.937-1.954a.333.333 0 0 1 .488-.13c1.322.913 2.934 1.418 4.273 1.418.957 0 1.669-.32 1.669-1.034 0-2.116-6.846-.985-6.846-5.636 0-2.731 2.332-4.134 5.202-4.134 1.69 0 3.422.469 4.84 1.287a.386.386 0 0 1 .153.507M120.476 7.044l-.964 1.914a.382.382 0 0 1-.52.167c-1.335-.697-2.664-1.094-3.681-1.094-.883 0-1.522.295-1.522.984 0 1.994 6.97.985 6.945 5.66 0 2.707-2.38 4.135-5.374 4.135-2.033 0-4.022-.58-5.5-1.677a.334.334 0 0 1-.1-.413l.937-1.954a.333.333 0 0 1 .489-.13c1.32.913 2.933 1.418 4.272 1.418.957 0 1.67-.32 1.67-1.034 0-2.116-6.847-.985-6.847-5.636 0-2.731 2.33-4.134 5.202-4.134 1.69 0 3.422.469 4.84 1.287a.385.385 0 0 1 .153.507M12.07 12.043c0 2.165 1.326 3.642 3.288 3.642 1.939 0 3.288-1.477 3.288-3.642 0-2.166-1.35-3.643-3.288-3.643-1.962 0-3.288 1.477-3.288 3.643m10.355-.05c0 4.037-2.846 6.769-7.067 6.769-4.244 0-7.09-2.732-7.09-6.768 0-4.061 2.846-6.744 7.09-6.744 4.221 0 7.067 2.683 7.067 6.744"/>
        <path fill="#CB5127" d="M33.068 5.62v5.79l3.79-3.564V5.62a.37.37 0 0 0-.37-.37h-3.05a.37.37 0 0 0-.37.37"/>
    </g>
</svg>
