<svg xmlns="http://www.w3.org/2000/svg" width="15" height="15" viewBox="0 0 15 15">
    <g fill="none" fill-rule="evenodd">
        <path d="M-5-5h24v24H-5z"/>
        <path fill="#666" fill-rule="nonzero" stroke="#666" stroke-width=".605" d="M6.162.652C3.088.652.588 3.082.588 6.07c0 2.988 2.5 5.418 5.574 5.418a5.636 5.636 0 0 0 3.663-1.343l4.25 4.125a.376.376 0 0 0 .522 0 .35.35 0 0 0 0-.508l-4.244-4.125a5.306 5.306 0 0 0 1.382-3.567c0-2.987-2.5-5.417-5.573-5.417zm0 .722c2.672 0 4.83 2.098 4.83 4.695 0 2.598-2.158 4.695-4.83 4.695s-4.83-2.097-4.83-4.695c0-2.597 2.158-4.695 4.83-4.695z"/>
    </g>
</svg>
