<svg xmlns="http://www.w3.org/2000/svg" xmlns:xlink="http://www.w3.org/1999/xlink" width="305" height="34" viewBox="0 0 185 20">
    <defs>
        <path id="a" d="M.09.099h25.364v18.908H.09z"/>
        <path id="c" d="M.107.016h19.521v11.066H.108z"/>
    </defs>
    <g fill="none" fill-rule="evenodd">
        <path fill="#C34A2C" d="M28.874 4.158v5.383l3.307-3.123v-2.26h-3.307"/>
        <path fill="#FFF" d="M3.296 6.327C4.09 5.002 5.394 4.28 7.106 4.26V7.17c-2.354-.2-3.81.984-3.81 2.812v5.201H0V4.38h3.296v1.948M10.892 9.822c0 1.767 1.156 2.972 2.869 2.972 1.69 0 2.868-1.205 2.868-2.972S15.452 6.85 13.761 6.85c-1.713 0-2.869 1.205-2.869 2.972zm9.034-.04c0 3.293-2.483 5.523-6.165 5.523-3.704 0-6.187-2.23-6.187-5.523 0-3.314 2.483-5.503 6.187-5.503 3.682 0 6.165 2.19 6.165 5.503z"/>
        <g transform="translate(41.436 .183)">
            <mask id="b" fill="#fff">
                <use xlink:href="#a"/>
            </mask>
            <path fill="#FFF" d="M9.166 9.638c0-1.767-1.178-2.992-2.869-2.992-1.712 0-2.89 1.245-2.91 2.992.02 1.767 1.176 2.993 2.91 2.993 1.691 0 2.869-1.226 2.869-2.993zM12.44 15H9.166v-1.586c-.814 1.104-2.055 1.707-3.64 1.707-3.274 0-5.436-2.23-5.436-5.563 0-3.294 2.14-5.483 5.351-5.483 1.627 0 2.89.603 3.725 1.707V.1h3.275V15zM22.179 9.297c0-1.667-1.092-2.812-2.697-2.812-1.606 0-2.697 1.165-2.719 2.812.022 1.647 1.092 2.791 2.719 2.791 1.605 0 2.697-1.144 2.697-2.791zm3.275 4.7c0 3.072-2.462 5.02-6.143 5.02-1.948 0-3.682-.582-5.01-1.426l1.22-2.169a6.367 6.367 0 0 0 3.576 1.085c1.883 0 3.082-.944 3.082-2.41v-1.225c-.77 1.004-1.948 1.566-3.468 1.566-2.975 0-5.03-2.089-5.03-5.222 0-3.052 2.012-5.12 4.945-5.12 1.562-.02 2.761.562 3.553 1.566V4.196h3.275v9.8z" mask="url(#b)"/>
        </g>
        <path fill="#FFF" d="M68.349 15.183h3.296V.281H68.35zM80.528 11.488v-.964h-2.59c-1.263 0-1.884.361-1.884 1.225 0 .823.685 1.366 1.798 1.366 1.392 0 2.483-.703 2.676-1.627zm.021 2.43c-.77.904-2.012 1.406-3.617 1.406-2.462 0-3.96-1.406-3.96-3.374 0-2.029 1.562-3.233 4.388-3.254h3.168v-.2c0-1.145-.813-1.808-2.397-1.808-1.028 0-2.227.321-3.425.944l-1.028-2.129c1.713-.803 3.19-1.245 5.202-1.245 3.082 0 4.859 1.446 4.88 3.876l.022 7.05h-3.233v-1.266z"/>
        <g transform="translate(84.486 4.222)">
            <mask id="d" fill="#fff">
                <use xlink:href="#c"/>
            </mask>
            <path fill="#FFF" d="M9.697 1.221L8.563 3.33C7.3 2.667 6.015 2.285 5.053 2.285c-.772 0-1.328.241-1.328.804 0 1.626 6.08.803 6.058 4.619 0 2.209-2.077 3.374-4.688 3.374-1.862 0-3.682-.522-4.988-1.506l1.07-2.089c1.2.864 2.74 1.346 4.004 1.346.834 0 1.455-.262 1.455-.844 0-1.727-5.972-.803-5.972-4.6C.664 1.162 2.697.017 5.202.017c1.584 0 3.21.442 4.495 1.205M19.542 1.221L18.408 3.33c-1.263-.663-2.547-1.045-3.51-1.045-.771 0-1.328.241-1.328.804 0 1.626 6.08.803 6.058 4.619 0 2.209-2.076 3.374-4.688 3.374-1.862 0-3.682-.522-4.987-1.506l1.07-2.089c1.199.864 2.74 1.346 4.003 1.346.835 0 1.455-.262 1.455-.844 0-1.727-5.972-.803-5.972-4.6 0-2.228 2.034-3.373 4.538-3.373 1.584 0 3.211.442 4.495 1.205" mask="url(#d)"/>
        </g>
        <path fill="#FFF" d="M24.1 15.107c-.992-.156-1.925-.875-2.503-1.62-.527-.677-.636-1.377-.636-2.18V4.68c0-.147.127-.266.284-.266h2.72c.157 0 .284.12.284.266v5.609c-.004 2.367 1.529 1.996 2.052 1.36l6.434-6.164c2.299-2.2 7.66-1.178 7.66 2.306v7.126c0 .148-.127.267-.284.267h-2.664c-.157 0-.285-.12-.285-.267V9.11c.016-1.866-1.324-2.582-2.736-1.307l-6.536 6.291c-1 1-2.391 1.232-3.79 1.013"/>
        <path fill="#FFF" d="M32.18 15.332V6.016l-3.306 3.168v6.148h3.307M113.98 2.42c0 .48-.38.86-.86.86s-.86-.38-.86-.86.38-.86.86-.86.86.38.86.86zm-.34 3.3v9.48c0 1-.1 1.96-.44 2.56-.36.6-.96 1.24-2.16 1.24-.6 0-.9-.14-.9-.14v-.9s.4.14.9.14c1.5 0 1.56-1.4 1.56-2.9V5.72h1.04zm12.82 4.68c0 2.8-2.1 4.8-4.76 4.8-2.64 0-4.74-2-4.74-4.8s2.1-4.84 4.74-4.84c2.66 0 4.76 2.04 4.76 4.84zm-1.1-.04c0-2.16-1.4-3.9-3.66-3.9-2.24 0-3.64 1.74-3.64 3.9 0 2.14 1.4 3.9 3.64 3.9 2.26 0 3.66-1.76 3.66-3.9zm11.46-4.64V15h-1.04v-1.5c-.6 1.1-1.7 1.7-3 1.7s-2.02-.42-2.5-1.04c-.48-.62-.7-1.62-.7-2.92V5.72h1.04v5.68c0 1.4.26 2.9 2.3 2.9 2.06 0 2.86-1.8 2.86-3.6V5.72h1.04zm8.32-.02l-.1 1.02c-.22-.08-.5-.16-1-.16-.9 0-1.44.62-1.6.84-.16.22-.66 1-.66 2.6v5h-1.04V5.72h1.04v1.74c.34-1.26 1.36-1.9 2.36-1.9.6 0 1 .14 1 .14zm9.84 3.76V15h-1.06V9.5c0-1.5-.26-3.04-2.26-3.04-2 0-2.96 1.74-2.96 3.94V15h-1.04V5.72h1.04v1.72c.46-1.1 1.66-1.88 3-1.88 2.66 0 3.28 1.7 3.28 3.9zm11.82.44c0 .3-.06.7-.06.7h-7.54c.1 2.2 1.34 3.66 3.44 3.66 2.1 0 3.26-1.2 3.26-1.2l.5.74s-1.16 1.4-3.86 1.4-4.44-2-4.44-4.84c0-2.86 2.04-4.8 4.5-4.8 2.44 0 4.2 1.84 4.2 4.34zm-7.56-.2h6.5c0-1.2-.9-3.24-3.2-3.24-2.3 0-3.24 1.94-3.3 3.24zm16.78-3.98h1.1l-4.7 11.44c-.64 1.54-1.44 1.74-2.08 1.74-.64 0-1.12-.24-1.12-.24l.2-1s.36.2.92.2.94-.2 1.38-1.46l.54-1.54-3.74-9.14h1.1l3.2 8.08 3.2-8.08zm8.76 6.74c0 1.74-1.54 2.74-3.26 2.74-1.72 0-2.8-.84-3.38-1.8l.74-.6c.6.88 1.52 1.46 2.68 1.46 1.16 0 2.18-.56 2.18-1.76s-1.66-1.62-2.46-1.9c-.8-.28-2.54-.88-2.54-2.56 0-1.68 1.46-2.48 2.82-2.48 1.36 0 2.2.48 2.92 1.3l-.64.64c-.64-.7-1.28-1.06-2.32-1.06-1.04 0-1.78.52-1.78 1.48s1 1.38 2.14 1.78c1.16.4 2.9 1 2.9 2.76z"/>
    </g>
</svg>
